{
	"asset":{
		"generator":"Khronos glTF Blender I/O v3.5.30",
		"version":"2.0"
	},
	"scene":0,
	"scenes":[
		{
			"name":"Scene",
			"nodes":[
				0
			]
		}
	],
	"nodes":[
		{
			"mesh":0,
			"name":"Cube",
			"scale":[
				2,
				0.1530941277742386,
				2
			]
		}
	],
	"materials":[
		{
			"doubleSided":true,
			"name":"Material",
			"pbrMetallicRoughness":{
				"baseColorFactor":[
					0.800000011920929,
					0.800000011920929,
					0.800000011920929,
					1
				],
				"metallicFactor":0,
				"roughnessFactor":0.5
			}
		}
	],
	"meshes":[
		{
			"name":"Cube",
			"primitives":[
				{
					"attributes":{
						"POSITION":0,
						"TEXCOORD_0":1,
						"NORMAL":2
					},
					"indices":3,
					"material":0
				}
			]
		}
	],
	"accessors":[
		{
			"bufferView":0,
			"componentType":5126,
			"count":233,
			"max":[
				1,
				3.337928295135498,
				1
			],
			"min":[
				-1,
				-2.0836684703826904,
				-1
			],
			"type":"VEC3"
		},
		{
			"bufferView":1,
			"componentType":5126,
			"count":233,
			"type":"VEC2"
		},
		{
			"bufferView":2,
			"componentType":5126,
			"count":233,
			"type":"VEC3"
		},
		{
			"bufferView":3,
			"componentType":5123,
			"count":348,
			"type":"SCALAR"
		}
	],
	"bufferViews":[
		{
			"buffer":0,
			"byteLength":2796,
			"byteOffset":0,
			"target":34962
		},
		{
			"buffer":0,
			"byteLength":1864,
			"byteOffset":2796,
			"target":34962
		},
		{
			"buffer":0,
			"byteLength":2796,
			"byteOffset":4660,
			"target":34962
		},
		{
			"buffer":0,
			"byteLength":696,
			"byteOffset":7456,
			"target":34963
		}
	],
	"buffers":[
		{
			"byteLength":8152,
			"uri":"data:application/octet-stream;base64,"
		}
	]
}
