{
	"asset":{
		"generator":"Khronos glTF Blender I/O v3.5.30",
		"version":"2.0"
	},
	"scene":0,
	"scenes":[
		{
			"name":"Scene",
			"nodes":[
				0
			]
		}
	],
	"nodes":[
		{
			"mesh":0,
			"name":"Cube",
			"scale":[
				2.7845816612243652,
				0.2609182596206665,
				2.6913087368011475
			]
		}
	],
	"meshes":[
		{
			"name":"Cube.001",
			"primitives":[
				{
					"attributes":{
						"POSITION":0,
						"TEXCOORD_0":1,
						"NORMAL":2
					},
					"indices":3
				}
			]
		}
	],
	"accessors":[
		{
			"bufferView":0,
			"componentType":5126,
			"count":104,
			"max":[
				3.7421984672546387,
				27.72956657409668,
				3.7421975135803223
			],
			"min":[
				-3.7421984672546387,
				-1,
				-3.7421975135803223
			],
			"type":"VEC3"
		},
		{
			"bufferView":1,
			"componentType":5126,
			"count":104,
			"type":"VEC2"
		},
		{
			"bufferView":2,
			"componentType":5126,
			"count":104,
			"type":"VEC3"
		},
		{
			"bufferView":3,
			"componentType":5123,
			"count":228,
			"type":"SCALAR"
		}
	],
	"bufferViews":[
		{
			"buffer":0,
			"byteLength":1248,
			"byteOffset":0,
			"target":34962
		},
		{
			"buffer":0,
			"byteLength":832,
			"byteOffset":1248,
			"target":34962
		},
		{
			"buffer":0,
			"byteLength":1248,
			"byteOffset":2080,
			"target":34962
		},
		{
			"buffer":0,
			"byteLength":456,
			"byteOffset":3328,
			"target":34963
		}
	],
	"buffers":[
		{
			"byteLength":3784,
			"uri":"data:application/octet-stream;base64,"
		}
	]
}
