{
	"asset":{
		"generator":"Khronos glTF Blender I/O v3.5.30",
		"version":"2.0"
	},
	"scene":0,
	"scenes":[
		{
			"name":"Scene",
			"nodes":[
				0,
				1,
				2,
				3,
				4
			]
		}
	],
	"nodes":[
		{
			"mesh":0,
			"name":"Cube",
			"scale":[
				3.7778356075286865,
				0.08040082454681396,
				4.079510688781738
			]
		},
		{
			"mesh":1,
			"name":"Cube.001",
			"scale":[
				0.4495337903499603,
				1.451812744140625,
				0.3351292014122009
			],
			"translation":[
				-3.0006179809570312,
				1.4473826885223389,
				3.3575117588043213
			]
		},
		{
			"mesh":2,
			"name":"NurbsPath",
			"rotation":[
				-0.5933017134666443,
				0.32206809520721436,
				0.028027163818478584,
				0.7372108101844788
			],
			"translation":[
				-0.7300021648406982,
				1.1100298166275024,
				3.5288493633270264
			]
		},
		{
			"mesh":3,
			"name":"Basin",
			"scale":[
				1,
				0.2254183292388916,
				1
			],
			"translation":[
				2.5736708641052246,
				1.2218201160430908,
				0
			]
		},
		{
			"mesh":4,
			"name":"BasinHolder",
			"scale":[
				0.4264072775840759,
				0.4264072775840759,
				0.4264072775840759
			],
			"translation":[
				2.735621213912964,
				0.5053870677947998,
				0
			]
		}
	],
	"materials":[
		{
			"doubleSided":true,
			"name":"Material",
			"pbrMetallicRoughness":{
				"baseColorFactor":[
					0.800000011920929,
					0.800000011920929,
					0.800000011920929,
					1
				],
				"metallicFactor":0,
				"roughnessFactor":0.5
			}
		}
	],
	"meshes":[
		{
			"name":"Cube",
			"primitives":[
				{
					"attributes":{
						"POSITION":0,
						"TEXCOORD_0":1,
						"NORMAL":2
					},
					"indices":3,
					"material":0
				}
			]
		},
		{
			"name":"Cube.001",
			"primitives":[
				{
					"attributes":{
						"POSITION":4,
						"TEXCOORD_0":5,
						"NORMAL":6
					},
					"indices":7
				}
			]
		},
		{
			"name":"NurbsPath",
			"primitives":[
				{
					"attributes":{
						"POSITION":8,
						"TEXCOORD_0":9,
						"NORMAL":10
					},
					"indices":11
				}
			]
		},
		{
			"name":"Cube.002",
			"primitives":[
				{
					"attributes":{
						"POSITION":12,
						"TEXCOORD_0":13,
						"NORMAL":14
					},
					"indices":15
				}
			]
		},
		{
			"name":"Cylinder",
			"primitives":[
				{
					"attributes":{
						"POSITION":16,
						"TEXCOORD_0":17,
						"NORMAL":18
					},
					"indices":19
				}
			]
		}
	],
	"accessors":[
		{
			"bufferView":0,
			"componentType":5126,
			"count":14,
			"max":[
				1,
				1,
				1
			],
			"min":[
				-1,
				-1,
				-1
			],
			"type":"VEC3"
		},
		{
			"bufferView":1,
			"componentType":5126,
			"count":14,
			"type":"VEC2"
		},
		{
			"bufferView":2,
			"componentType":5126,
			"count":14,
			"type":"VEC3"
		},
		{
			"bufferView":3,
			"componentType":5123,
			"count":36,
			"type":"SCALAR"
		},
		{
			"bufferView":4,
			"componentType":5126,
			"count":48,
			"max":[
				1.000000238418579,
				1,
				1.4113235473632812
			],
			"min":[
				-1,
				-1,
				-1.4113235473632812
			],
			"type":"VEC3"
		},
		{
			"bufferView":5,
			"componentType":5126,
			"count":48,
			"type":"VEC2"
		},
		{
			"bufferView":6,
			"componentType":5126,
			"count":48,
			"type":"VEC3"
		},
		{
			"bufferView":7,
			"componentType":5123,
			"count":84,
			"type":"SCALAR"
		},
		{
			"bufferView":8,
			"componentType":5126,
			"count":1444,
			"max":[
				2.2538907527923584,
				1.584683895111084,
				0.20854176580905914
			],
			"min":[
				-1.9418060779571533,
				-1.3651561737060547,
				-0.0770314633846283
			],
			"type":"VEC3"
		},
		{
			"bufferView":9,
			"componentType":5126,
			"count":1444,
			"type":"VEC2"
		},
		{
			"bufferView":10,
			"componentType":5126,
			"count":1444,
			"type":"VEC3"
		},
		{
			"bufferView":11,
			"componentType":5123,
			"count":8046,
			"type":"SCALAR"
		},
		{
			"bufferView":12,
			"componentType":5126,
			"count":2057,
			"max":[
				0.9902881979942322,
				5.123358726501465,
				0.9758383631706238
			],
			"min":[
				-0.9202613830566406,
				-0.9228305220603943,
				-0.975838303565979
			],
			"type":"VEC3"
		},
		{
			"bufferView":13,
			"componentType":5126,
			"count":2057,
			"type":"VEC2"
		},
		{
			"bufferView":14,
			"componentType":5126,
			"count":2057,
			"type":"VEC3"
		},
		{
			"bufferView":15,
			"componentType":5123,
			"count":11520,
			"type":"SCALAR"
		},
		{
			"bufferView":16,
			"componentType":5126,
			"count":331,
			"max":[
				1.034518837928772,
				1.216819405555725,
				1.0345184803009033
			],
			"min":[
				-1.0345182418823242,
				-1,
				-1.0345185995101929
			],
			"type":"VEC3"
		},
		{
			"bufferView":17,
			"componentType":5126,
			"count":331,
			"type":"VEC2"
		},
		{
			"bufferView":18,
			"componentType":5126,
			"count":331,
			"type":"VEC3"
		},
		{
			"bufferView":19,
			"componentType":5123,
			"count":1464,
			"type":"SCALAR"
		}
	],
	"bufferViews":[
		{
			"buffer":0,
			"byteLength":168,
			"byteOffset":0,
			"target":34962
		},
		{
			"buffer":0,
			"byteLength":112,
			"byteOffset":168,
			"target":34962
		},
		{
			"buffer":0,
			"byteLength":168,
			"byteOffset":280,
			"target":34962
		},
		{
			"buffer":0,
			"byteLength":72,
			"byteOffset":448,
			"target":34963
		},
		{
			"buffer":0,
			"byteLength":576,
			"byteOffset":520,
			"target":34962
		},
		{
			"buffer":0,
			"byteLength":384,
			"byteOffset":1096,
			"target":34962
		},
		{
			"buffer":0,
			"byteLength":576,
			"byteOffset":1480,
			"target":34962
		},
		{
			"buffer":0,
			"byteLength":168,
			"byteOffset":2056,
			"target":34963
		},
		{
			"buffer":0,
			"byteLength":17328,
			"byteOffset":2224,
			"target":34962
		},
		{
			"buffer":0,
			"byteLength":11552,
			"byteOffset":19552,
			"target":34962
		},
		{
			"buffer":0,
			"byteLength":17328,
			"byteOffset":31104,
			"target":34962
		},
		{
			"buffer":0,
			"byteLength":16092,
			"byteOffset":48432,
			"target":34963
		},
		{
			"buffer":0,
			"byteLength":24684,
			"byteOffset":64524,
			"target":34962
		},
		{
			"buffer":0,
			"byteLength":16456,
			"byteOffset":89208,
			"target":34962
		},
		{
			"buffer":0,
			"byteLength":24684,
			"byteOffset":105664,
			"target":34962
		},
		{
			"buffer":0,
			"byteLength":23040,
			"byteOffset":130348,
			"target":34963
		},
		{
			"buffer":0,
			"byteLength":3972,
			"byteOffset":153388,
			"target":34962
		},
		{
			"buffer":0,
			"byteLength":2648,
			"byteOffset":157360,
			"target":34962
		},
		{
			"buffer":0,
			"byteLength":3972,
			"byteOffset":160008,
			"target":34962
		},
		{
			"buffer":0,
			"byteLength":2928,
			"byteOffset":163980,
			"target":34963
		}
	],
	"buffers":[
		{
			"byteLength":166908,
			"uri":"data:application/octet-stream;base64,"
		}
	]
}
