{
	"asset":{
		"generator":"Khronos glTF Blender I/O v3.5.30",
		"version":"2.0"
	},
	"scene":0,
	"scenes":[
		{
			"name":"Scene",
			"nodes":[
				0
			]
		}
	],
	"nodes":[
		{
			"mesh":0,
			"name":"Circle",
			"scale":[
				3.910245895385742,
				3.910245895385742,
				3.910245895385742
			]
		}
	],
	"meshes":[
		{
			"name":"Circle",
			"primitives":[
				{
					"attributes":{
						"POSITION":0,
						"TEXCOORD_0":1,
						"NORMAL":2
					},
					"indices":3
				}
			]
		}
	],
	"accessors":[
		{
			"bufferView":0,
			"componentType":5126,
			"count":1216,
			"max":[
				1.068926215171814,
				0.9355270862579346,
				1.068926215171814
			],
			"min":[
				-1.068926215171814,
				0,
				-1.068926215171814
			],
			"type":"VEC3"
		},
		{
			"bufferView":1,
			"componentType":5126,
			"count":1216,
			"type":"VEC2"
		},
		{
			"bufferView":2,
			"componentType":5126,
			"count":1216,
			"type":"VEC3"
		},
		{
			"bufferView":3,
			"componentType":5123,
			"count":2292,
			"type":"SCALAR"
		}
	],
	"bufferViews":[
		{
			"buffer":0,
			"byteLength":14592,
			"byteOffset":0,
			"target":34962
		},
		{
			"buffer":0,
			"byteLength":9728,
			"byteOffset":14592,
			"target":34962
		},
		{
			"buffer":0,
			"byteLength":14592,
			"byteOffset":24320,
			"target":34962
		},
		{
			"buffer":0,
			"byteLength":4584,
			"byteOffset":38912,
			"target":34963
		}
	],
	"buffers":[
		{
			"byteLength":43496,
			"uri":"data:application/octet-stream;base64,"
		}
	]
}
