{
	"asset":{
		"generator":"Khronos glTF Blender I/O v3.5.30",
		"version":"2.0"
	},
	"scene":0,
	"scenes":[
		{
			"name":"Scene",
			"nodes":[
				0,
				1
			]
		}
	],
	"nodes":[
		{
			"mesh":0,
			"name":"Cube",
			"scale":[
				2.7845816612243652,
				0.2609182596206665,
				2.6913087368011475
			]
		},
		{
			"mesh":1,
			"name":"Text",
			"rotation":[
				0.6800562143325806,
				0,
				0,
				0.7331599593162537
			],
			"scale":[
				3.824190616607666,
				3.824190616607666,
				3.824190616607666
			],
			"translation":[
				-11.800946235656738,
				14.222723960876465,
				-11.902410507202148
			]
		}
	],
	"meshes":[
		{
			"name":"Cube.001",
			"primitives":[
				{
					"attributes":{
						"COLOR_0":0,
						"POSITION":1,
						"TEXCOORD_0":2,
						"NORMAL":3
					},
					"indices":4
				}
			]
		},
		{
			"name":"Text",
			"primitives":[
				{
					"attributes":{
						"POSITION":5,
						"TEXCOORD_0":6,
						"NORMAL":7
					},
					"indices":8
				}
			]
		}
	],
	"accessors":[
		{
			"bufferView":0,
			"componentType":5123,
			"count":104,
			"normalized":true,
			"type":"VEC4"
		},
		{
			"bufferView":1,
			"componentType":5126,
			"count":104,
			"max":[
				3.7421984672546387,
				27.72956657409668,
				3.7421975135803223
			],
			"min":[
				-3.7421984672546387,
				-1,
				-3.7421975135803223
			],
			"type":"VEC3"
		},
		{
			"bufferView":2,
			"componentType":5126,
			"count":104,
			"type":"VEC2"
		},
		{
			"bufferView":3,
			"componentType":5126,
			"count":104,
			"type":"VEC3"
		},
		{
			"bufferView":4,
			"componentType":5123,
			"count":228,
			"type":"SCALAR"
		},
		{
			"bufferView":5,
			"componentType":5126,
			"count":2694,
			"max":[
				6.836000442504883,
				0.09999999403953552,
				0.23000000417232513
			],
			"min":[
				0.017000000923871994,
				-0.09999999403953552,
				-0.6910000443458557
			],
			"type":"VEC3"
		},
		{
			"bufferView":6,
			"componentType":5126,
			"count":2694,
			"type":"VEC2"
		},
		{
			"bufferView":7,
			"componentType":5126,
			"count":2694,
			"type":"VEC3"
		},
		{
			"bufferView":8,
			"componentType":5123,
			"count":7836,
			"type":"SCALAR"
		}
	],
	"bufferViews":[
		{
			"buffer":0,
			"byteLength":832,
			"byteOffset":0,
			"target":34962
		},
		{
			"buffer":0,
			"byteLength":1248,
			"byteOffset":832,
			"target":34962
		},
		{
			"buffer":0,
			"byteLength":832,
			"byteOffset":2080,
			"target":34962
		},
		{
			"buffer":0,
			"byteLength":1248,
			"byteOffset":2912,
			"target":34962
		},
		{
			"buffer":0,
			"byteLength":456,
			"byteOffset":4160,
			"target":34963
		},
		{
			"buffer":0,
			"byteLength":32328,
			"byteOffset":4616,
			"target":34962
		},
		{
			"buffer":0,
			"byteLength":21552,
			"byteOffset":36944,
			"target":34962
		},
		{
			"buffer":0,
			"byteLength":32328,
			"byteOffset":58496,
			"target":34962
		},
		{
			"buffer":0,
			"byteLength":15672,
			"byteOffset":90824,
			"target":34963
		}
	],
	"buffers":[
		{
			"byteLength":106496,
			"uri":"data:application/octet-stream;base64,"
		}
	]
}
